<?xml version="1.0" standalone="no"?>
<!DOCTYPE svg PUBLIC "-//W3C//DTD SVG 20010904//EN"
 "http://www.w3.org/TR/2001/REC-SVG-20010904/DTD/svg10.dtd">
<svg version="1.0" xmlns="http://www.w3.org/2000/svg"
 width="260.000000pt" height="260.000000pt" viewBox="0 0 260.000000 260.000000"
 preserveAspectRatio="xMidYMid meet">
<metadata>
Created by potrace 1.14, written by Peter Selinger 2001-2017
</metadata>
<g transform="translate(0.000000,260.000000) scale(0.100000,-0.100000)"
fill="#000000" stroke="none">
<path d="M1404 2048 c-3 -4 -3 -12 1 -17 3 -5 1 -12 -5 -16 -16 -10 -12 -35 6
-35 13 0 14 3 5 14 -8 9 -8 16 -2 20 6 4 8 14 5 24 -5 15 -4 15 6 -1 6 -9 16
-14 22 -11 7 4 8 2 4 -5 -4 -6 -12 -8 -18 -5 -7 5 -9 -1 -5 -16 4 -16 1 -23
-14 -27 -24 -7 -25 -20 -1 -26 16 -4 16 -5 -1 -6 -11 -1 -15 -6 -11 -13 4 -6
3 -8 -4 -5 -5 4 -9 18 -7 32 1 14 -1 28 -5 30 -5 3 -7 -6 -5 -20 2 -26 -25
-51 -40 -37 -5 4 -5 1 -1 -6 5 -8 13 -9 26 -2 15 8 18 6 18 -13 1 -33 9 -80
17 -102 5 -14 4 -16 -3 -7 -7 11 -10 11 -15 -3 -4 -9 -3 -14 2 -11 4 3 17 -2
27 -10 10 -9 12 -12 4 -8 -13 7 -13 6 -1 -10 11 -13 16 -14 22 -4 8 12 13 4
10 -15 -1 -4 11 0 26 10 24 15 26 15 15 1 -10 -12 -10 -18 -1 -24 8 -4 9 -3 5
4 -4 7 -6 12 -4 12 2 0 17 4 35 9 23 7 31 6 27 -3 -2 -7 4 -12 15 -12 16 0 18
4 9 21 -8 16 -8 18 2 8 7 -6 18 -9 25 -7 7 3 16 1 20 -5 3 -7 0 -8 -9 -5 -9 3
-16 2 -16 -4 0 -14 33 -8 38 7 3 8 10 4 20 -11 29 -40 23 -63 -8 -35 -8 6 -7
3 3 -9 22 -27 22 -40 0 -23 -10 8 -8 3 4 -11 16 -18 19 -30 13 -40 -12 -19
-13 -33 -2 -26 5 3 9 -2 9 -10 0 -8 -6 -13 -13 -10 -8 3 -10 -2 -7 -15 3 -12
-1 -25 -11 -32 -16 -12 -16 -13 3 -13 11 0 18 3 16 6 -2 3 3 14 11 25 8 10 14
14 14 8 0 -7 -4 -14 -9 -18 -6 -3 -8 -15 -6 -26 3 -15 0 -19 -10 -15 -10 3
-12 -1 -10 -16 3 -12 0 -27 -5 -33 -7 -8 -5 -12 5 -12 8 0 12 4 9 9 -3 4 -1 8
5 8 5 0 9 -9 8 -20 -1 -11 -7 -18 -13 -16 -7 3 -10 -3 -7 -15 3 -12 -1 -25
-11 -32 -16 -12 -16 -13 3 -13 11 0 18 3 16 6 -2 3 3 14 11 25 8 10 14 14 14
8 0 -7 -4 -14 -9 -18 -6 -3 -8 -15 -6 -26 3 -15 0 -19 -10 -15 -10 3 -12 -1
-10 -16 3 -12 0 -27 -5 -33 -7 -8 -5 -12 5 -12 8 0 12 4 9 9 -3 4 -1 8 5 8 5
0 9 -9 8 -20 -1 -11 -7 -18 -13 -16 -7 3 -10 -3 -7 -15 3 -12 -1 -25 -11 -32
-16 -12 -16 -13 3 -13 11 0 18 3 16 6 -2 3 3 14 11 25 8 10 14 14 14 8 0 -7
-4 -14 -9 -18 -6 -3 -8 -15 -6 -26 3 -15 0 -19 -10 -15 -10 3 -12 -1 -10 -16
3 -12 0 -27 -5 -33 -7 -8 -5 -12 5 -12 8 0 12 4 9 9 -3 4 -1 8 5 8 5 0 9 -9 8
-20 -1 -11 -7 -18 -13 -16 -7 3 -10 -3 -7 -15 3 -12 -1 -25 -11 -32 -16 -12
-16 -13 3 -13 11 0 18 3 16 6 -2 3 3 14 11 25 8 10 14 14 14 8 0 -7 -4 -14 -9
-18 -6 -3 -8 -15 -6 -26 3 -14 0 -19 -9 -16 -7 3 -13 -1 -13 -9 0 -7 4 -11 8
-9 4 3 9 -2 13 -10 3 -8 0 -17 -6 -21 -7 -5 -8 -2 -3 6 5 8 4 11 -2 7 -6 -4
-8 -18 -5 -32 3 -17 0 -25 -9 -25 -11 0 -11 -2 0 -9 13 -8 13 -12 0 -27 -12
-15 -12 -17 0 -9 11 6 13 4 7 -10 -5 -15 -4 -16 8 -6 12 11 14 8 12 -16 -2
-15 1 -34 8 -42 9 -12 8 -12 -11 0 -25 15 -43 5 -23 -14 10 -10 11 -9 5 2 -5
9 -4 12 2 8 13 -8 11 -63 -2 -60 -5 1 -10 -9 -10 -21 0 -13 5 -23 11 -23 6 0
9 9 6 19 -3 12 1 18 11 18 23 0 31 -19 15 -37 -9 -12 -9 -15 0 -9 7 4 12 2 12
-4 0 -6 4 -9 9 -5 5 3 16 -3 23 -12 13 -18 38 -29 38 -17 0 4 -8 13 -17 21
-10 8 -12 11 -4 7 7 -3 17 0 23 7 7 12 9 11 7 -1 -3 -34 2 -37 56 -36 53 1 67
8 45 21 -6 4 -19 1 -28 -7 -15 -12 -16 -11 -4 4 11 14 10 18 -5 27 -10 6 -13
10 -8 10 6 0 19 -6 29 -14 10 -8 23 -12 28 -9 5 3 8 2 7 -3 -4 -23 5 -29 48
-28 28 0 48 5 51 13 2 6 -1 12 -8 12 -6 0 -9 -4 -5 -9 3 -6 -4 -8 -16 -6 -28
6 -28 6 -18 30 7 18 8 18 8 -5 1 -22 2 -23 17 -9 13 14 20 32 23 62 1 4 6 7
12 7 5 0 7 -4 4 -10 -10 -16 1 -11 16 7 10 11 10 14 2 9 -8 -4 -13 -2 -13 4 0
6 -4 9 -9 5 -5 -3 -12 -1 -16 4 -3 6 6 8 22 5 16 -2 24 -1 18 3 -19 15 -17 36
2 29 17 -6 17 -5 0 8 -12 9 -14 16 -8 21 6 3 11 12 11 18 0 7 -5 4 -11 -5 -5
-10 -15 -18 -21 -18 -9 0 -9 3 -1 11 9 9 8 19 -3 42 -10 18 -11 26 -4 22 9 -5
10 -1 6 13 -4 11 -2 23 3 27 6 3 8 0 5 -8 -3 -8 -1 -17 4 -21 5 -3 8 5 7 17
-1 12 -8 22 -15 22 -7 0 -15 7 -17 15 -4 12 -3 12 5 1 7 -10 11 -10 17 -1 10
15 15 71 6 66 -3 -2 -12 2 -19 10 -7 8 -8 14 -2 14 5 0 9 3 9 8 -3 18 2 33 9
28 5 -3 8 9 7 27 -2 18 2 37 7 44 6 7 5 14 -3 18 -8 6 -7 10 2 17 11 8 11 9
-1 5 -8 -2 -14 -14 -14 -25 1 -23 -10 -29 -21 -12 -3 6 -3 10 2 10 4 0 8 16 9
35 0 19 -2 32 -6 30 -3 -2 -6 6 -7 18 0 12 1 16 4 9 3 -6 10 -9 15 -6 6 4 8 3
5 -3 -3 -5 0 -10 7 -10 10 0 14 27 6 47 -1 3 -2 8 -1 12 0 4 -7 4 -16 1 -12
-5 -14 -3 -8 7 6 10 4 12 -11 7 -16 -6 -17 -5 -4 5 14 13 25 82 11 74 -4 -3
-7 5 -8 17 0 12 1 16 4 9 3 -6 10 -9 15 -6 6 4 8 3 5 -3 -3 -5 0 -10 7 -10 10
0 14 27 6 47 -1 3 -2 8 -1 12 0 4 -7 5 -17 2 -13 -4 -11 0 6 14 21 20 22 21 3
27 -23 7 -35 32 -15 32 7 0 11 -4 8 -9 -3 -4 2 -5 12 -1 14 5 14 7 -5 18 -12
6 -19 14 -15 18 4 4 12 2 19 -3 8 -7 12 -5 12 4 0 9 -10 12 -29 11 -28 -3 -28
-2 -12 16 18 20 29 25 19 9 -3 -5 -2 -10 3 -10 11 0 25 30 17 38 -3 3 -5 1 -5
-5 0 -11 -36 -11 -47 1 -5 4 -3 7 2 6 20 -4 35 0 35 11 0 5 -4 8 -9 5 -4 -3
-8 7 -7 22 0 17 -4 26 -12 24 -9 -1 -7 6 4 23 9 14 17 25 19 25 1 0 1 -18 -1
-41 -2 -42 7 -48 11 -7 3 34 15 58 30 58 7 0 15 3 18 8 2 4 2 1 1 -5 -5 -18 6
-16 29 5 13 10 17 11 12 3 -6 -11 -4 -13 8 -8 9 3 19 2 23 -4 4 -6 11 -6 20 2
12 10 13 9 8 -4 -6 -16 5 -17 38 -3 9 4 22 5 27 1 7 -4 8 0 4 11 -4 12 -3 15
5 10 7 -4 12 -3 12 3 0 5 -6 12 -12 14 -8 4 -7 6 4 6 9 1 19 -5 21 -11 4 -10
6 -10 6 -1 1 7 8 10 19 7 14 -5 15 -4 2 5 -8 6 -11 11 -5 11 5 0 4 5 -2 11 -6
6 -10 17 -9 23 2 6 1 8 -1 4 -9 -15 -22 -8 -16 9 5 12 3 14 -8 8 -8 -5 -5 1 5
13 11 12 15 22 11 22 -5 0 4 13 20 30 25 27 26 30 10 36 -17 7 -17 8 1 21 10
7 13 13 7 13 -7 0 -15 -5 -18 -10 -4 -6 -11 -7 -17 -4 -7 5 -4 12 7 21 11 7
14 13 9 13 -6 0 -16 -6 -23 -12 -10 -11 -12 -10 -11 2 4 27 0 40 -11 40 -8 0
-8 -4 0 -13 8 -10 7 -14 -4 -14 -8 0 -12 4 -9 9 4 5 -1 8 -9 6 -9 -2 -15 2
-14 7 1 6 7 9 13 7 7 -1 15 1 18 6 9 15 -80 8 -100 -8 -17 -14 -18 -14 -6 2
12 15 10 17 -17 16 -17 -1 -28 -5 -25 -9 3 -5 0 -17 -5 -26 -9 -16 -10 -15 -8
7 l2 25 -107 1 c-83 0 -108 -3 -108 -13 0 -7 -4 -13 -10 -13 -5 0 -7 6 -4 13
3 9 -4 13 -21 13 -17 0 -24 -4 -20 -14 2 -7 1 -11 -4 -7 -5 3 -12 -1 -15 -7
-3 -7 -4 -4 -1 8 5 18 1 20 -40 20 -29 -1 -45 -5 -45 -13 0 -7 -4 -13 -10 -13
-5 0 -7 6 -4 13 3 9 -4 13 -21 13 -17 0 -24 -4 -20 -14 2 -7 1 -11 -4 -7 -5 3
-12 -1 -15 -7 -3 -7 -4 -4 -1 7 4 18 0 21 -38 21 -23 1 -45 -4 -49 -10 -5 -7
-8 -7 -8 2 0 10 -16 12 -60 11 -34 -1 -63 -6 -66 -11z m80 -14 c3 -8 2 -12 -4
-9 -6 3 -10 10 -10 16 0 14 7 11 14 -7z m86 -19 c0 -5 -5 -3 -10 5 -5 8 -10
20 -10 25 0 6 5 3 10 -5 5 -8 10 -19 10 -25z m357 28 c-4 -3 0 -11 9 -17 13
-10 13 -12 -5 -12 -11 0 -17 4 -15 8 3 4 -1 8 -8 8 -9 0 -9 3 2 10 17 11 26
13 17 3z m63 -5 c0 -4 -9 -7 -20 -5 -29 5 -33 13 -5 13 14 0 25 -4 25 -8z m70
2 c0 -5 -4 -10 -10 -10 -5 0 -10 5 -10 10 0 6 5 10 10 10 6 0 10 -4 10 -10z
m-453 -6 c-3 -3 -12 -4 -19 -1 -8 3 -5 6 6 6 11 1 17 -2 13 -5z m158 -3 c3 -5
0 -13 -6 -17 -7 -4 -9 -3 -5 4 3 5 0 13 -6 15 -9 4 -10 6 -1 6 6 1 14 -3 18
-8z m-219 -13 c3 -4 -1 -5 -10 -4 -8 1 -18 5 -22 8 -3 4 1 5 10 4 8 -1 18 -5
22 -8z m124 2 c0 -5 -5 -10 -11 -10 -5 0 -7 5 -4 10 3 6 8 10 11 10 2 0 4 -4
4 -10z m60 1 c0 -6 -4 -12 -8 -15 -5 -3 -9 1 -9 9 0 8 4 15 9 15 4 0 8 -4 8
-9z m100 -1 c0 -5 -5 -10 -11 -10 -5 0 -7 5 -4 10 3 6 8 10 11 10 2 0 4 -4 4
-10z m60 1 c0 -6 -4 -12 -8 -15 -5 -3 -9 1 -9 9 0 8 4 15 9 15 4 0 8 -4 8 -9z
m220 -1 c0 -5 -5 -10 -11 -10 -5 0 -7 5 -4 10 3 6 8 10 11 10 2 0 4 -4 4 -10z
m126 -28 c-3 -4 11 -16 30 -27 32 -17 33 -19 18 -37 -20 -22 -38 -24 -31 -3 4
8 2 17 -4 20 -5 4 -7 10 -4 15 3 5 -4 12 -16 15 -17 6 -19 9 -8 16 18 11 22
11 15 1z m-839 -97 c0 -8 -4 -12 -9 -9 -5 3 -6 10 -3 15 9 13 12 11 12 -6z
m851 -10 c-3 -3 -9 2 -12 12 -6 14 -5 15 5 6 7 -7 10 -15 7 -18z m-841 -40 c0
-8 -4 -12 -9 -9 -5 3 -6 10 -3 15 9 13 12 11 12 -6z m862 -34 c7 -5 9 -11 5
-14 -5 -3 -15 1 -22 9 -14 16 -5 18 17 5z m-285 -331 c-6 -6 -10 -3 -10 10 0
13 4 16 10 10 7 -7 7 -13 0 -20z m31 -40 c8 -13 -5 -13 -25 0 -13 8 -13 10 2
10 9 0 20 -4 23 -10z m0 -160 c8 -13 -5 -13 -25 0 -13 8 -13 10 2 10 9 0 20
-4 23 -10z m-5 -161 c0 -14 -17 -10 -23 5 -4 10 -1 13 9 9 7 -3 14 -9 14 -14z
m-26 -39 c-6 -6 -10 -3 -10 10 0 13 4 16 10 10 7 -7 7 -13 0 -20z m21 -79 c-6
-5 -25 10 -25 20 0 5 6 4 14 -3 8 -7 12 -15 11 -17z m2 -17 c-3 -3 -12 -4 -19
-1 -8 3 -5 6 6 6 11 1 17 -2 13 -5z m-336 -47 c-10 -9 -11 -8 -5 6 3 10 9 15
12 12 3 -3 0 -11 -7 -18z m9 -23 c0 -8 -19 -13 -24 -6 -3 5 1 9 9 9 8 0 15 -2
15 -3z m304 -74 c-6 -6 -10 -3 -10 10 0 13 4 16 10 10 7 -7 7 -13 0 -20z m23
-47 c0 -7 -4 -13 -8 -13 -4 0 -9 6 -12 13 -3 8 0 14 7 14 7 0 13 -6 13 -14z
m-123 -91 c3 -5 -1 -9 -9 -9 -8 0 -12 4 -9 9 3 4 7 8 9 8 2 0 6 -4 9 -8z m-81
-25 c-4 -6 0 -8 10 -4 11 4 14 2 10 -9 -4 -11 -9 -12 -18 -4 -9 8 -14 7 -18
-2 -3 -7 -5 -4 -4 8 1 11 7 21 14 21 6 0 9 -5 6 -10z"/>
<path d="M2259 1947 c6 -8 7 -18 3 -22 -4 -5 -1 -5 6 -1 10 6 10 11 1 22 -6 8
-14 14 -16 14 -3 0 0 -6 6 -13z"/>
<path d="M2256 2047 c3 -10 9 -15 12 -12 3 3 0 11 -7 18 -10 9 -11 8 -5 -6z"/>
<path d="M1381 2034 c0 -11 3 -14 6 -6 3 7 2 16 -1 19 -3 4 -6 -2 -5 -13z"/>
<path d="M2295 1900 c6 -10 4 -12 -11 -6 -10 4 -15 4 -11 0 4 -4 1 -14 -6 -22
-10 -13 -9 -14 10 -4 29 16 36 29 22 38 -8 5 -9 3 -4 -6z"/>
<path d="M1355 1860 c3 -5 8 -10 11 -10 2 0 4 5 4 10 0 6 -5 10 -11 10 -5 0
-7 -4 -4 -10z"/>
<path d="M1351 1833 c7 -12 15 -20 18 -17 3 2 -3 12 -13 22 -17 16 -18 16 -5
-5z"/>
<path d="M682 1781 c-8 -4 -13 -12 -12 -17 1 -5 -4 -10 -11 -13 -6 -2 -9 1 -6
6 3 5 0 10 -8 10 -11 0 -12 -4 -4 -14 6 -7 8 -13 3 -13 -5 0 -2 -5 6 -11 13
-9 12 -10 -2 -5 -11 3 -18 0 -18 -7 0 -9 -2 -9 -9 1 -7 12 -56 10 -70 -3 -3
-3 7 -4 22 -1 14 2 30 0 33 -6 4 -6 3 -8 -2 -5 -13 7 -32 -23 -28 -45 2 -14
-2 -16 -15 -8 -13 6 -18 5 -18 -5 0 -8 3 -12 7 -10 4 3 15 -4 25 -15 17 -19
17 -21 1 -39 -10 -11 -15 -24 -12 -30 3 -5 1 -11 -6 -14 -7 -2 -2 -2 12 0 l25
3 -24 -14 c-16 -9 -20 -15 -11 -18 7 -2 14 -14 15 -25 1 -14 -3 -19 -12 -16
-10 4 -11 9 -2 19 7 9 8 14 1 14 -10 0 -26 -29 -24 -42 1 -5 -3 -8 -9 -8 -8 0
-7 -5 1 -15 7 -9 10 -18 6 -22 -3 -3 -6 -1 -6 5 0 7 -7 12 -16 12 -8 0 -13 4
-10 8 3 5 -1 9 -8 9 -7 0 -13 -6 -13 -13 0 -7 4 -11 9 -8 4 3 5 -2 2 -10 -5
-14 -8 -14 -21 0 -12 12 -18 12 -31 2 -12 -10 -14 -10 -8 0 4 6 3 12 -1 12 -5
0 -15 -6 -22 -12 -11 -11 -11 -9 -2 9 17 34 13 38 -10 9 -12 -15 -24 -25 -26
-22 -3 3 2 12 11 21 9 9 16 22 16 28 0 7 -5 4 -11 -5 -5 -10 -14 -18 -19 -18
-5 0 -7 8 -4 18 5 14 4 14 -4 2 -6 -8 -8 -18 -6 -22 7 -11 -14 -10 -37 2 -15
8 -19 8 -17 -2 2 -7 -2 -12 -9 -11 -11 2 -9 -39 3 -59 3 -4 -2 -5 -10 -2 -9 3
-13 10 -10 15 3 5 -3 6 -12 2 -11 -4 -15 -3 -10 5 3 6 3 13 -2 16 -4 2 -8 -39
-7 -93 0 -72 3 -98 13 -98 8 0 10 8 6 19 -5 18 -4 18 18 6 12 -7 26 -17 29
-21 3 -5 9 -8 13 -8 20 3 26 -1 26 -14 0 -9 6 -12 17 -8 10 4 14 2 10 -4 -9
-14 25 -12 47 3 14 9 25 10 40 3 20 -10 20 -9 2 5 -14 11 -24 13 -40 5 -20
-10 -20 -9 -3 5 11 8 25 12 33 9 8 -3 24 3 36 13 12 11 18 13 14 6 -5 -8 1
-16 16 -22 20 -9 19 -9 -10 -6 -19 3 -31 2 -28 -2 13 -13 59 -13 69 0 7 10 8
9 4 -3 -3 -9 -1 -21 4 -26 7 -7 5 -16 -5 -26 -13 -13 -14 -16 -1 -21 8 -3 14
-2 12 2 -1 4 1 8 6 10 16 5 19 1 9 -11 -12 -14 -11 -35 1 -54 5 -7 5 -19 0
-25 -4 -7 -8 -16 -8 -20 0 -3 -3 -9 -7 -13 -3 -4 -5 0 -4 9 1 8 5 19 9 22 14
14 7 26 -8 14 -10 -8 -13 -23 -10 -42 4 -20 2 -27 -6 -23 -8 6 -8 2 0 -14 13
-23 23 -29 15 -8 -3 8 3 20 13 28 16 12 17 12 6 -2 -7 -8 -11 -25 -8 -38 2
-12 1 -20 -3 -17 -4 2 -8 -9 -9 -26 0 -17 2 -27 6 -22 13 18 39 14 44 -7 3
-12 10 -18 16 -14 8 4 8 12 1 25 -8 16 -8 18 5 14 8 -3 12 -10 9 -15 -8 -13
10 -11 25 4 10 8 12 8 7 0 -5 -9 5 -11 34 -10 29 2 44 -2 50 -13 8 -13 9 -12
10 4 0 17 2 17 24 2 18 -11 27 -13 32 -4 4 6 3 9 -2 6 -5 -3 -15 0 -22 8 -10
11 -10 14 2 14 8 0 16 3 19 8 2 4 2 2 1 -5 -2 -6 6 -11 16 -10 15 1 17 4 7 16
-10 12 -9 14 4 9 9 -4 16 -1 16 8 0 7 -5 10 -10 7 -5 -3 -7 0 -5 8 3 8 11 13
17 11 7 -1 9 2 6 8 -4 6 -13 9 -21 6 -8 -3 -11 0 -8 9 3 8 12 11 19 9 7 -3 16
0 21 7 4 7 3 10 -2 6 -5 -3 -20 1 -34 10 -23 13 -23 14 -3 10 13 -3 27 2 35
12 12 14 11 15 -4 2 -11 -8 -18 -9 -18 -3 0 6 5 14 10 17 6 3 10 11 10 17 0 5
-9 0 -19 -13 l-20 -24 6 23 c4 15 -1 28 -13 38 -18 14 -17 14 4 4 13 -7 26 -9
30 -6 3 3 2 6 -3 6 -4 0 0 10 11 23 l19 22 -22 -19 c-14 -12 -23 -14 -23 -7 0
7 -4 10 -8 7 -5 -3 -9 1 -9 9 0 11 4 12 13 4 9 -7 15 -6 20 3 12 19 14 39 3
32 -5 -3 -7 -10 -4 -15 4 -5 1 -9 -4 -9 -16 0 -13 16 4 30 8 7 13 16 10 20 -3
5 -1 11 4 15 6 3 9 -2 7 -12 -2 -10 1 -27 5 -38 9 -19 9 -19 5 2 -2 12 2 30
10 41 7 11 10 23 6 28 -4 5 2 1 14 -8 14 -12 24 -14 30 -8 7 7 11 6 11 -4 0
-8 -8 -13 -19 -11 -10 2 -18 -1 -18 -7 0 -5 6 -8 14 -5 7 3 19 0 26 -6 10 -9
11 -9 6 1 -4 6 -2 12 4 12 6 0 9 4 6 9 -4 5 3 7 14 4 11 -3 22 -9 25 -13 3 -5
-5 -6 -17 -3 -13 3 -20 3 -17 0 3 -4 16 -8 30 -10 16 -3 23 -10 22 -23 -1 -15
2 -14 17 6 11 14 17 34 14 45 -4 16 -3 17 5 5 10 -13 11 -13 11 0 0 11 2 12 8
3 12 -19 40 6 46 41 3 16 8 31 12 35 4 3 4 -2 1 -11 -3 -10 -3 -20 2 -22 4 -3
7 8 7 24 0 16 -3 27 -8 24 -7 -5 -12 10 -9 29 0 4 -3 7 -9 7 -6 0 -9 3 -9 8 4
24 -3 34 -21 29 -12 -3 -18 -1 -14 5 3 5 15 8 25 5 10 -3 22 -1 25 4 3 5 -3 9
-13 9 -15 0 -16 2 -3 10 8 5 10 10 4 10 -5 0 -15 -5 -22 -12 -16 -16 -16 4 1
22 10 12 9 12 -5 1 -10 -7 -18 -10 -18 -5 0 4 -5 3 -12 -4 -17 -17 -28 -15
-28 6 0 11 3 13 8 5 5 -8 12 -8 26 3 18 12 17 13 -12 9 -20 -2 -32 1 -32 8 -1
7 -9 -1 -18 -18 -9 -16 -25 -31 -34 -33 -20 -3 -24 13 -6 24 7 4 8 3 4 -4 -5
-8 -2 -10 9 -6 17 7 15 14 -7 18 -7 1 -20 6 -28 11 -13 8 -13 7 -1 -8 12 -15
11 -17 -11 -17 -13 0 -29 5 -34 10 -7 7 -11 6 -11 -4 0 -8 4 -13 8 -10 13 8
22 -17 10 -29 -9 -9 -11 -8 -6 5 5 13 2 16 -14 13 -11 -2 -24 1 -27 7 -4 7 -2
8 4 4 7 -4 12 -1 12 8 0 8 -4 17 -10 21 -5 3 -7 12 -4 19 3 8 1 17 -5 20 -6 4
-8 13 -4 21 3 8 0 15 -7 15 -6 0 -9 -4 -6 -9 7 -11 -20 -8 -31 3 -4 4 -2 6 6
4 7 -2 16 3 19 11 3 10 0 11 -9 5 -12 -7 -12 -5 0 9 9 11 10 17 2 17 -6 0 -11
5 -11 11 0 8 5 8 15 -1 8 -7 13 -16 10 -20 -3 -5 0 -12 7 -16 7 -4 10 -4 6 1
-4 4 -2 15 5 23 10 13 9 14 -2 8 -9 -6 -12 -5 -9 5 3 8 11 13 17 11 7 -1 10 2
6 8 -5 8 -11 7 -21 -1 -17 -14 -19 2 -2 19 6 6 13 22 15 34 2 18 1 19 -6 8 -5
-8 -8 -17 -5 -21 2 -4 -3 -9 -11 -13 -13 -5 -13 -1 1 32 10 24 11 33 3 25 -7
-7 -18 -13 -23 -13 -7 0 -8 3 -1 8 6 4 16 15 23 24 11 14 11 16 -7 11 -12 -3
-18 -10 -14 -16 3 -6 1 -7 -5 -3 -13 8 -6 33 11 39 7 2 -1 2 -18 -1 -16 -2
-34 -10 -38 -16 -6 -7 -7 -4 -3 6 6 19 -16 21 -42 4 -7 -4 -16 -5 -19 -2 -4 3
-1 6 6 6 7 0 9 5 6 10 -4 6 -12 7 -18 3 -19 -12 -47 -14 -47 -4 0 6 10 8 22 6
16 -4 19 -2 10 7 -15 15 -16 31 0 22 7 -4 8 -3 4 4 -8 14 -7 14 -24 3z m-92
-221 c0 -5 -4 -10 -10 -10 -5 0 -10 5 -10 10 0 6 5 10 10 10 6 0 10 -4 10 -10z
m276 -85 c-2 -7 1 -18 7 -24 9 -9 8 -11 -5 -6 -10 4 -18 10 -19 14 0 3 -2 14
-4 23 -2 11 2 15 12 11 8 -3 12 -11 9 -18z m-310 -31 c1 -9 0 -13 -4 -10 -3 4
-7 14 -8 22 -1 9 0 13 4 10 3 -4 7 -14 8 -22z m-234 -21 c-6 -2 -10 -8 -8 -12
3 -4 -1 -8 -9 -8 -11 0 -12 4 -4 14 6 7 17 13 23 12 7 0 6 -2 -2 -6z m21 -18
c-3 -9 -8 -14 -10 -11 -3 3 -2 9 2 15 9 16 15 13 8 -4z m170 0 c-3 -9 -8 -14
-10 -11 -3 3 -2 9 2 15 9 16 15 13 8 -4z m440 0 c-3 -9 -8 -14 -10 -11 -3 3
-2 9 2 15 9 16 15 13 8 -4z m130 0 c-3 -9 -8 -14 -10 -11 -3 3 -2 9 2 15 9 16
15 13 8 -4z m-797 -57 c4 -7 4 -10 -1 -6 -4 4 -14 3 -22 -3 -8 -8 -13 -8 -13
-1 0 6 6 13 13 15 6 3 13 6 14 6 1 1 5 -5 9 -11z m9 -27 c-3 -2 -16 -6 -28 -8
-15 -2 -18 0 -9 5 14 9 45 12 37 3z m-3 -64 c8 -16 7 -17 -10 -8 -11 6 -21 8
-24 6 -2 -2 -5 5 -5 17 -2 20 -1 20 12 2 13 -18 14 -17 9 6 -2 14 -1 18 2 10
4 -8 11 -23 16 -33z m838 3 c0 -5 -2 -10 -4 -10 -3 0 -8 5 -11 10 -3 6 -1 10
4 10 6 0 11 -4 11 -10z m-5 -28 c-3 -3 -11 0 -18 7 -9 10 -8 11 6 5 10 -3 15
-9 12 -12z m-61 -44 c-9 -14 -23 2 -17 18 4 12 8 13 14 3 4 -7 5 -17 3 -21z
m-659 2 c3 -5 1 -10 -4 -10 -6 0 -11 5 -11 10 0 6 2 10 4 10 3 0 8 -4 11 -10z
m194 -266 c-6 -7 -16 -11 -23 -7 -7 5 -5 9 7 11 9 2 14 8 11 14 -4 7 -2 8 5 4
9 -6 9 -11 0 -22z"/>
<path d="M717 1767 c-3 -9 -3 -16 1 -16 4 1 9 0 12 -1 3 -1 13 -3 23 -5 15 -3
16 -1 6 11 -6 7 -15 12 -19 9 -5 -3 -10 0 -12 7 -3 8 -7 6 -11 -5z"/>
<path d="M777 1773 c-7 -7 11 -33 23 -33 4 0 11 7 14 16 5 14 4 15 -9 4 -14
-11 -19 -7 -16 13 1 9 -4 9 -12 0z"/>
<path d="M1375 1760 c3 -5 8 -10 11 -10 2 0 4 5 4 10 0 6 -5 10 -11 10 -5 0
-7 -4 -4 -10z"/>
<path d="M610 1751 c0 -5 5 -13 10 -16 6 -3 10 -2 10 4 0 5 -4 13 -10 16 -5 3
-10 2 -10 -4z"/>
<path d="M2115 1741 c-6 -11 13 -26 22 -17 4 3 1 6 -6 6 -7 0 -9 5 -6 10 3 6
4 10 1 10 -3 0 -7 -4 -11 -9z"/>
<path d="M1510 1729 c0 -5 5 -7 10 -4 6 3 10 8 10 11 0 2 -4 4 -10 4 -5 0 -10
-5 -10 -11z"/>
<path d="M1630 1731 c0 -5 7 -12 16 -15 14 -5 15 -4 4 9 -14 17 -20 19 -20 6z"/>
<path d="M2037 1733 c-10 -9 -9 -23 1 -23 5 0 9 7 9 15 0 17 -1 18 -10 8z"/>
<path d="M554 1684 c1 -8 4 -15 7 -16 2 -2 3 -1 2 1 -2 2 2 9 7 16 7 8 5 12
-4 12 -8 0 -13 -6 -12 -13z"/>
<path d="M1640 1630 c-9 -6 -10 -10 -3 -10 6 0 15 5 18 10 8 12 4 12 -15 0z"/>
<path d="M545 1611 c-4 -7 1 -9 12 -5 16 5 15 3 -2 -11 l-20 -17 20 4 c11 2
20 10 20 17 0 18 -21 26 -30 12z"/>
<path d="M893 1475 c0 -8 4 -12 9 -9 5 3 6 10 3 15 -9 13 -12 11 -12 -6z"/>
<path d="M330 1460 c-9 -6 -10 -10 -3 -10 6 0 15 5 18 10 8 12 4 12 -15 0z"/>
<path d="M995 1460 c3 -5 8 -10 11 -10 2 0 4 5 4 10 0 6 -5 10 -11 10 -5 0 -7
-4 -4 -10z"/>
<path d="M436 1447 c3 -10 9 -15 12 -12 3 3 0 11 -7 18 -10 9 -11 8 -5 -6z"/>
<path d="M255 1420 c3 -5 8 -10 11 -10 2 0 4 5 4 10 0 6 -5 10 -11 10 -5 0 -7
-4 -4 -10z"/>
<path d="M1146 1382 c-2 -4 -1 -14 3 -21 6 -10 10 -9 14 3 6 16 -8 32 -17 18z"/>
<path d="M2005 1380 c-3 -5 -1 -10 4 -10 6 0 11 5 11 10 0 6 -2 10 -4 10 -3 0
-8 -4 -11 -10z"/>
<path d="M2009 1358 c-7 -23 -4 -35 7 -35 10 0 11 4 3 13 -7 8 -6 14 3 17 10
4 10 6 1 6 -7 1 -13 0 -14 -1z"/>
<path d="M1160 1340 c-12 -7 -10 -9 8 -7 12 0 22 5 22 9 0 11 -12 10 -30 -2z"/>
<path d="M1148 1232 c-3 -10 0 -19 6 -19 7 0 12 9 12 19 0 23 -12 23 -18 0z"/>
<path d="M2005 1220 c-3 -5 -1 -10 4 -10 6 0 11 5 11 10 0 6 -2 10 -4 10 -3 0
-8 -4 -11 -10z"/>
<path d="M296 1203 c22 -22 44 -26 37 -6 -4 10 -8 11 -13 3 -5 -8 -9 -7 -13 4
-4 9 -11 16 -17 16 -6 0 -4 -8 6 -17z"/>
<path d="M915 1209 c-4 -6 -5 -12 -2 -15 2 -3 7 2 10 11 7 17 1 20 -8 4z"/>
<path d="M1094 1198 c3 -17 28 -17 34 0 2 6 -1 12 -8 12 -6 0 -8 -4 -5 -10 3
-5 2 -10 -4 -10 -5 0 -12 5 -14 10 -3 6 -4 5 -3 -2z"/>
<path d="M538 1173 c6 -2 9 -10 6 -15 -4 -7 -2 -8 5 -4 13 9 5 26 -12 25 -9 0
-8 -2 1 -6z"/>
<path d="M331 1167 c2 -1 13 -9 24 -17 19 -14 19 -14 6 3 -7 9 -18 17 -24 17
-6 0 -8 -1 -6 -3z"/>
<path d="M1075 1140 c-3 -5 -1 -10 4 -10 6 0 11 5 11 10 0 6 -2 10 -4 10 -3 0
-8 -4 -11 -10z"/>
<path d="M550 1091 c0 -6 4 -12 8 -15 5 -3 9 1 9 9 0 8 -4 15 -9 15 -4 0 -8
-4 -8 -9z"/>
<path d="M2003 1057 c0 -8 6 -14 14 -14 9 0 10 4 2 14 -6 7 -12 13 -14 13 -1
0 -2 -6 -2 -13z"/>
<path d="M590 881 c0 -6 4 -13 10 -16 6 -3 7 1 4 9 -7 18 -14 21 -14 7z"/>
<path d="M657 883 c-3 -5 4 -15 16 -23 21 -12 21 -12 7 6 -8 10 -15 20 -16 22
-1 2 -4 -1 -7 -5z"/>
<path d="M691 883 c-1 -17 16 -25 25 -12 4 7 3 9 -4 5 -5 -3 -13 0 -15 6 -4 9
-6 10 -6 1z"/>
<path d="M735 880 c-3 -5 -1 -10 4 -10 6 0 11 5 11 10 0 6 -2 10 -4 10 -3 0
-8 -4 -11 -10z"/>
<path d="M2000 881 c0 -6 4 -12 8 -15 5 -3 9 1 9 9 0 8 -4 15 -9 15 -4 0 -8
-4 -8 -9z"/>
<path d="M1626 762 c-3 -5 1 -9 9 -9 8 0 12 4 9 9 -3 4 -7 8 -9 8 -2 0 -6 -4
-9 -8z"/>
<path d="M1665 710 c3 -5 8 -10 11 -10 2 0 4 5 4 10 0 6 -5 10 -11 10 -5 0 -7
-4 -4 -10z"/>
<path d="M1995 698 c3 -11 7 -23 11 -27 4 -3 4 2 1 11 -3 9 -1 18 6 21 6 2 4
6 -5 10 -13 4 -16 1 -13 -15z"/>
<path d="M1656 661 c-4 -5 -1 -13 5 -17 8 -4 9 -3 5 4 -4 7 -1 12 9 12 9 0 14
-4 11 -8 -2 -4 4 -8 15 -8 11 0 18 5 16 10 -4 13 -54 19 -61 7z"/>
</g>
</svg>
